Coordinates
version=1
nRows=9
nColumns=24
inDegrees=yes

Units are S.I. units (second, meters, Newtons, ...)
Angles are in degrees.

endheader
time	pelvis_tilt	pelvis_list	pelvis_rotation	pelvis_tx	pelvis_ty	pelvis_tz	hip_flexion_r	hip_adduction_r	hip_rotation_r	knee_angle_r	ankle_angle_r	subtalar_angle_r	mtp_angle_r	hip_flexion_l	hip_adduction_l	hip_rotation_l	knee_angle_l	ankle_angle_l	subtalar_angle_l	mtp_angle_l	lumbar_extension	lumbar_bending	lumbar_rotation
      0.77100000	     -1.40595880	     -4.41163970	      9.41263312	     -0.44495111	      0.91802477	      0.30873854	     12.54933161	      9.34190259	     -7.24556981	    -17.90426692	      5.33441007	     -4.23958790	      3.62268159	     17.56250754	     -6.75316226	      1.27645206	    -70.74643003	     -5.31201832	    -13.11828470	      1.13043668	     -7.33603416	      5.29074906	     -2.26971368
      0.77516667	     -1.44199734	     -4.24286821	      9.26721837	     -0.43962276	      0.91914450	      0.30915357	     11.93801669	      9.28860241	     -7.00836358	    -17.41565253	      5.39913596	     -4.17424826	      3.59172211	     18.17158673	     -6.44552624	      1.08415789	    -70.34292204	     -4.82537549	    -13.10457888	      1.06160613	     -7.34619312	      5.05959715	     -1.93816072
      0.77933333	     -1.48147997	     -4.07068579	      9.10657056	     -0.43430576	      0.92024406	      0.30956757	     11.32933081	      9.22563173	     -6.77178754	    -16.92226351	      5.43580141	     -4.08136808	      3.56098569	     18.75891566	     -6.13465582	      0.87977934	    -69.86180905	     -4.35405774	    -13.10799709	      0.99983431	     -7.36048437	      4.83822286	     -1.66933620
      0.78350000	     -1.51022089	     -3.89322163	      8.93161345	     -0.42898574	      0.92133662	      0.30998874	     10.70421037	      9.15440885	     -6.53800343	    -16.42021025	      5.46624897	     -3.97273552	      3.53219593	     19.30963872	     -5.82846612	      0.65309859	    -69.30701511	     -3.90329886	    -13.09810196	      0.94766041	     -7.38622805	      4.61103657	     -1.40773422
      0.78766667	     -1.54822547	     -3.71006985	      8.73792830	     -0.42370251	      0.92239127	      0.31041812	     10.09639913	      9.06966970	     -6.30290736	    -15.92697657	      5.46391837	     -3.83775846	      3.51555522	     19.84679831	     -5.51643010	      0.41516822	    -68.67874367	     -3.46603787	    -13.09787762	      0.92258118	     -7.41478826	      4.38938237	     -1.22292873
      0.79183333	     -1.55803869	     -3.52563240	      8.53908816	     -0.41839794	      0.92346087	      0.31086865	      9.44355537	      8.98659018	     -6.07404164	    -15.40463903	      5.47744494	     -3.70234966	      3.50014748	     20.32892348	     -5.22005809	      0.16348681	    -67.97554052	     -3.05574697	    -13.06408742	      0.90092500	     -7.46264872	      4.15373204	     -0.98268336
      0.79600000	     -1.52927401	     -3.34994971	      8.34166134	     -0.41308638	      0.92454172	      0.31132759	      8.73580721	      8.91752411	     -5.85222912	    -14.85166389	      5.51732046	     -3.58391561	      3.47714566	     20.75352285	     -4.95151134	     -0.09551705	    -67.21260430	     -2.67953586	    -13.00066369	      0.86784915	     -7.55338737	      3.92808018	     -0.61609703
      0.80016667	     -1.51999160	     -3.17094036	      8.12408343	     -0.40780618	      0.92555623	      0.31179359	      8.05749642	      8.83444068	     -5.62958779	    -14.30961352	      5.51582980	     -3.43990745	      3.45563902	     21.17733939	     -4.67951399	     -0.37007899	    -66.38246461	     -2.31340167	    -12.95550502	      0.83958413	     -7.62867939	      3.70155528	     -0.33774033
      0.80433333	     -1.51781184	     -2.98594590	      7.88412555	     -0.40254770	      0.92652768	      0.31226049	      7.39461016	      8.73548413	     -5.40833040	    -13.78101616	      5.48176008	     -3.26677593	      3.44182994	     21.58252053	     -4.40587065	     -0.66353005	    -65.48185033	     -1.95743146	    -12.90739002	      0.82462179	     -7.70122798	      3.48297266	     -0.13738550
